<svg width="280" height="12" viewBox="0 0 280 12" fill="none" xmlns="http://www.w3.org/2000/svg">
<path d="M0.666667 6C0.666667 8.94552 3.05448 11.3333 6 11.3333C8.94552 11.3333 11.3333 8.94552 11.3333 6C11.3333 3.05448 8.94552 0.666667 6 0.666667C3.05448 0.666667 0.666667 3.05448 0.666667 6ZM268.667 6C268.667 8.94552 271.054 11.3333 274 11.3333C276.946 11.3333 279.333 8.94552 279.333 6C279.333 3.05448 276.946 0.666667 274 0.666667C271.054 0.666667 268.667 3.05448 268.667 6ZM6 7H274V5H6V7Z" fill="#D74544"/>
</svg>
