<svg width="25" height="25" viewBox="0 0 25 25" fill="none" xmlns="http://www.w3.org/2000/svg">
<path d="M12.542 12.967C14.1988 12.967 15.542 11.6239 15.542 9.96704C15.542 8.31019 14.1988 6.96704 12.542 6.96704C10.8851 6.96704 9.54199 8.31019 9.54199 9.96704C9.54199 11.6239 10.8851 12.967 12.542 12.967Z" stroke="#705E52" stroke-width="2" stroke-linecap="round" stroke-linejoin="round"/>
<path d="M20.042 9.96704C20.042 16.717 12.542 21.967 12.542 21.967C12.542 21.967 5.04199 16.717 5.04199 9.96704C5.04199 7.97792 5.83217 6.07026 7.23869 4.66374C8.64521 3.25722 10.5529 2.46704 12.542 2.46704C14.5311 2.46704 16.4388 3.25722 17.8453 4.66374C19.2518 6.07026 20.042 7.97792 20.042 9.96704V9.96704Z" stroke="#705E52" stroke-width="2" stroke-linecap="round" stroke-linejoin="round"/>
</svg>
