<svg width="25" height="25" viewBox="0 0 25 25" fill="none" xmlns="http://www.w3.org/2000/svg">
<path d="M12.542 12.9669C14.1988 12.9669 15.542 11.6238 15.542 9.96692C15.542 8.31006 14.1988 6.96692 12.542 6.96692C10.8851 6.96692 9.54199 8.31006 9.54199 9.96692C9.54199 11.6238 10.8851 12.9669 12.542 12.9669Z" stroke="#705E52" stroke-width="2" stroke-linecap="round" stroke-linejoin="round"/>
<path d="M20.042 9.96692C20.042 16.7169 12.542 21.9669 12.542 21.9669C12.542 21.9669 5.04199 16.7169 5.04199 9.96692C5.04199 7.9778 5.83217 6.07014 7.23869 4.66362C8.64521 3.2571 10.5529 2.46692 12.542 2.46692C14.5311 2.46692 16.4388 3.2571 17.8453 4.66362C19.2518 6.07014 20.042 7.9778 20.042 9.96692V9.96692Z" stroke="#705E52" stroke-width="2" stroke-linecap="round" stroke-linejoin="round"/>
</svg>
